<svg width="334" height="173" viewBox="0 0 334 173" fill="none" xmlns="http://www.w3.org/2000/svg">
<g clip-path="url(#clip0_437_1120)">
<path d="M173.744 54.0695H159.326C157.263 54.0695 155.411 55.2171 154.489 57.0617C153.567 58.9027 153.764 61.0746 155 62.7186L162.209 72.3356C163.24 73.7085 164.817 74.497 166.535 74.497C168.253 74.497 169.83 73.7085 170.861 72.3321L178.071 62.7221C179.306 61.0746 179.503 58.9027 178.581 57.0617C177.659 55.2171 175.807 54.0695 173.744 54.0695Z" fill="white"/>
<path d="M205.595 34.7685C204.638 32.2426 203.449 29.6918 202.071 27.1886C206.692 24.7616 209.791 19.9181 209.791 14.4185C209.791 6.46654 203.324 0 195.372 0C190.18 0 185.358 3.0315 182.743 7.51134C177.964 5.07497 172.564 3.60464 166.535 3.60464C160.507 3.60464 155.106 5.07518 150.327 7.51134C147.712 3.0315 142.891 0 137.698 0C129.746 0 123.28 6.46654 123.28 14.4185C123.28 19.9174 126.377 24.7607 130.998 27.1879C129.619 29.6914 128.43 32.2424 127.472 34.7685C123.427 45.4522 120.27 60.5959 128.211 72.0962C134.815 81.6605 147.709 86.5113 166.535 86.5113C185.361 86.5113 198.255 81.6605 204.859 72.0962C212.801 60.5959 209.639 45.4522 205.595 34.7685ZM198.928 67.9988C193.749 75.5002 182.851 79.302 166.535 79.302C150.219 79.302 139.321 75.5002 134.143 67.9988C127.979 59.0752 130.781 46.3921 134.213 37.3242C135.892 32.8958 145.34 10.8139 166.535 10.8139C187.73 10.8139 197.178 32.8958 198.857 37.3242C202.289 46.3921 205.091 59.0752 198.928 67.9988Z" fill="white"/>
<path d="M158.023 44.625C161.276 39.9995 161.558 38.1584 160.744 34.9762C159.203 28.9392 155.359 27.6719 152.409 27.6719C145.08 27.6719 139.363 37.5635 139.293 42.5093C139.25 45.4803 140.451 48.5746 142.433 50.5845C143.823 51.9926 145.456 52.7389 147.16 52.7389C151.712 52.7389 155.207 48.6379 158.023 44.625Z" fill="white"/>
<path d="M180.662 27.6719C177.712 27.6719 173.868 28.9392 172.326 34.9762C171.513 38.1585 171.794 39.9995 175.047 44.625C177.863 48.638 181.359 52.739 185.91 52.739C187.614 52.739 189.247 51.9927 190.638 50.5846C192.619 48.5746 193.82 45.4804 193.778 42.5129C193.707 37.5635 187.99 27.6719 180.662 27.6719Z" fill="white"/>
</g>
<path d="M68.7765 111.426L68.7765 172.157H53.983V135.736L40.4008 172.157H28.4622L14.7934 135.65L14.7934 172.157H0L0 111.426H17.4753L34.518 153.471L51.3877 111.426H68.7765Z" fill="white"/>
<path d="M121.892 123.884L121.892 172.157H107.098V165.583C105.599 167.716 103.551 169.447 100.956 170.773C98.4183 172.042 95.5922 172.676 92.4778 172.676C88.7867 172.676 85.5281 171.869 82.7021 170.254C79.876 168.582 77.6844 166.188 76.1272 163.074C74.57 159.959 73.7914 156.297 73.7914 152.087V123.884H88.4983V150.097C88.4983 153.327 89.3346 155.836 91.0071 157.624C92.6797 159.411 94.929 160.305 97.755 160.305C100.639 160.305 102.917 159.411 104.589 157.624C106.262 155.836 107.098 153.327 107.098 150.097V123.884H121.892Z" fill="white"/>
<path d="M188.923 123.365C194.921 123.365 199.679 125.182 203.197 128.815C206.773 132.449 208.561 137.495 208.561 143.955V172.157H193.854V145.944C193.854 142.83 193.018 140.437 191.345 138.764C189.73 137.034 187.481 136.169 184.597 136.169C181.714 136.169 179.436 137.034 177.763 138.764C176.148 140.437 175.341 142.83 175.341 145.944V172.157H160.634V145.944C160.634 142.83 159.798 140.437 158.125 138.764C156.51 137.034 154.261 136.169 151.377 136.169C148.493 136.169 146.215 137.034 144.543 138.764C142.928 140.437 142.12 142.83 142.12 145.944V172.157L127.327 172.157L127.327 123.884H142.12V129.94C143.62 127.921 145.581 126.335 148.003 125.182C150.426 123.971 153.165 123.365 156.222 123.365C159.855 123.365 163.085 124.144 165.911 125.701C168.795 127.258 171.044 129.479 172.659 132.362C174.331 129.709 176.61 127.546 179.493 125.874C182.377 124.201 185.52 123.365 188.923 123.365Z" fill="white"/>
<path d="M228.51 130.719C229.894 128.469 231.884 126.652 234.479 125.268C237.075 123.884 240.045 123.192 243.39 123.192C247.369 123.192 250.974 124.201 254.204 126.22C257.434 128.239 259.971 131.122 261.817 134.871C263.72 138.62 264.672 142.974 264.672 147.934C264.672 152.894 263.72 157.277 261.817 161.084C259.971 164.833 257.434 167.745 254.204 169.822C250.974 171.84 247.369 172.849 243.39 172.849C239.987 172.849 237.017 172.186 234.479 170.86C231.942 169.476 229.952 167.659 228.51 165.41V172.157L213.717 172.157V108.139L228.51 108.139V130.719ZM249.619 147.934C249.619 144.243 248.581 141.359 246.504 139.283C244.486 137.149 241.977 136.082 238.978 136.082C236.036 136.082 233.528 137.149 231.451 139.283C229.433 141.417 228.424 144.33 228.424 148.021C228.424 151.712 229.433 154.624 231.451 156.758C233.528 158.892 236.036 159.959 238.978 159.959C241.919 159.959 244.428 158.892 246.504 156.758C248.581 154.567 249.619 151.625 249.619 147.934Z" fill="white"/>
<path d="M282.035 108.139V172.157H267.242V108.139H282.035Z" fill="white"/>
<path d="M333.07 147.242C333.07 148.626 332.984 150.068 332.811 151.568H299.331C299.562 154.567 300.513 156.874 302.186 158.489C303.916 160.046 306.021 160.824 308.501 160.824C312.192 160.824 314.759 159.267 316.201 156.153H331.946C331.138 159.325 329.668 162.18 327.534 164.717C325.457 167.255 322.833 169.245 319.661 170.687C316.489 172.129 312.942 172.849 309.02 172.849C304.291 172.849 300.081 171.84 296.39 169.822C292.698 167.803 289.815 164.919 287.738 161.17C285.662 157.422 284.624 153.038 284.624 148.021C284.624 143.003 285.633 138.62 287.652 134.871C289.728 131.122 292.612 128.239 296.303 126.22C299.994 124.201 304.233 123.192 309.02 123.192C313.692 123.192 317.844 124.172 321.478 126.133C325.111 128.094 327.937 130.892 329.956 134.525C332.032 138.158 333.07 142.398 333.07 147.242ZM317.931 143.349C317.931 140.811 317.066 138.793 315.336 137.293C313.605 135.794 311.443 135.044 308.847 135.044C306.367 135.044 304.262 135.765 302.532 137.207C300.859 138.649 299.821 140.696 299.417 143.349H317.931Z" fill="white"/>
<defs>
<clipPath id="clip0_437_1120">
<rect width="86.5113" height="86.5113" fill="white" transform="translate(123.28)"/>
</clipPath>
</defs>
</svg>
